<svg xmlns="http://www.w3.org/2000/svg" width="90" height="90" viewBox="0 0 90 90" fill="none">
            <path d="M46.2858 0.246253C48.0478 -0.122535 49.8764 0.0208824 51.664 0.0618588C53.006 -0.0252161 53.9638 1.32188 53.9638 2.5563C54.056 4.29268 54.1328 6.06491 53.805 7.78079C53.1648 9.5479 51.0647 9.06131 49.6049 9.20985C47.3154 9.05106 45.118 10.9718 45.0617 13.2819C44.9131 16.5088 45.1795 19.7408 44.9797 22.9626C44.8209 24.7245 43.5916 26.589 41.7375 26.8553C39.5042 27.3573 37.1788 27.2344 34.9559 27.7978C28.6353 29.3907 23.129 33.8777 20.3222 39.7629C17.4897 45.6123 17.4077 52.6961 20.0251 58.6325C22.5195 64.0619 27.1703 68.5488 32.8353 70.5516C38.4184 72.6055 44.8414 72.2982 50.1889 69.6757C57.8719 66.0595 63.204 57.7311 62.7891 49.1772C62.7942 46.8826 60.6225 44.9413 58.3637 45.0642C55.2955 45.054 52.2223 45.013 49.1593 45.0847C46.8544 45.1206 44.9131 47.3487 45.0566 49.628C44.8926 51.0878 45.3844 53.1519 43.689 53.869C41.7989 54.1866 39.8577 54.1046 37.9471 53.992C36.8152 53.9151 35.9803 52.7729 36.0213 51.6768C35.9598 49.8994 35.8522 48.0965 36.1493 46.3396C36.9227 44.6903 38.9511 45.1411 40.4211 44.9823C42.6697 45.1001 44.8158 43.1896 44.9387 40.941C45.1283 37.6885 44.8209 34.4308 45.0258 31.1835C45.1129 29.3907 46.4241 27.6697 48.2066 27.2856C51.5718 26.4558 55.1111 27.4444 58.4866 26.6709C60.8837 25.8565 62.6867 23.4696 62.7635 20.924C62.9018 16.3244 62.7072 11.7145 62.825 7.10981C62.8711 4.4617 64.3565 1.8136 66.8611 0.763581C68.6283 -0.26083 70.7283 0.0874695 72.6747 0.036249C76.2652 0.0925916 79.8609 -0.0354599 83.4515 0.0721032C87.1957 0.297474 90.1204 3.95974 89.977 7.61689C89.9462 11.566 89.9155 15.51 89.977 19.4591C90.146 21.9535 88.9116 24.5043 86.8832 25.9487C84.983 27.3009 82.5397 26.9373 80.3526 26.9731C77.6123 26.8604 74.8976 27.3419 72.1573 27.2497C70.3288 27.3009 68.3926 27.0243 66.6665 27.767C64.9813 28.7607 63.4089 30.3025 63.1579 32.3359C62.6764 35.3067 62.6252 38.3799 63.0708 41.3559C63.3167 43.2869 65.0582 44.8798 66.9943 44.9823C70.2519 45.1359 73.5147 44.8901 76.7723 45.054C79.0824 45.1513 80.9519 47.3282 80.8341 49.6228C80.8751 60.5687 76.1679 71.4633 68.1263 78.9056C60.894 85.9024 50.9111 89.6876 40.9231 90C31.8058 89.9488 22.6527 86.9114 15.5074 81.2054C7.66044 75.1153 2.27716 65.9622 0.684206 56.1637C-1.00095 48.3577 0.586887 40.1573 3.69597 32.9147C9.78097 19.0698 24.2303 9.31741 39.3916 9.17399C41.1382 9.22521 43.1307 8.8974 44.1141 7.26859C45.9017 5.27611 43.817 1.79824 46.2858 0.246253Z" fill="url(#logo-style)"></path>
            <defs>
                <linearGradient id="logo-style" x1="-6.5563e-07" y1="30" x2="82" y2="80" gradientUnits="userSpaceOnUse">
                    <stop stop-color="#00b3b9ff"></stop>
                    <stop offset="1" stop-color="#00b3b9ff"></stop>
                </linearGradient>
            </defs>
        </svg>